<?xml version="1.0" encoding="iso-8859-1"?>
<!-- Uploaded to: SVG Repo, www.svgrepo.com, Generator: SVG Repo Mixer Tools -->
<svg version="1.1" id="Layer_1" xmlns="http://www.w3.org/2000/svg" xmlns:xlink="http://www.w3.org/1999/xlink" 
	 viewBox="0 0 511.998 511.998" xml:space="preserve">
<path style="fill:#FFB92E;" d="M232.653,263.384c0,12.893,10.453,23.345,23.346,23.345c12.893,0,23.346-10.451,23.346-23.345
	v-40.578h-46.691L232.653,263.384L232.653,263.384z"/>
<path style="fill:#EF9A1D;" d="M261.382,263.384v-17.335v-23.243v-17.335h-21.669v17.335v23.243v17.335
	c0,12.893,10.453,23.345,23.346,23.345c3.912,0,7.595-0.974,10.834-2.677C266.459,280.146,261.382,272.364,261.382,263.384z"/>
<rect x="190.26" y="38.62" style="fill:#36A1CB;" width="131.474" height="60.737"/>
<rect x="198.407" y="23.373" style="fill:#2B80AF;" width="21.669" height="89.004"/>
<path style="fill:#8BD8F7;" d="M322.423,131.797c7.879,0,14.264-6.387,14.264-14.264v-3.914c0-7.878-6.387-14.264-14.264-14.264
	h-15.168H204.744h-15.168c-7.878,0-14.264,6.387-14.264,14.264v3.914c0,7.878,6.387,14.264,14.264,14.264"/>
<polyline style="fill:#36A1CB;" points="269.829,131.797 220.536,131.797 220.241,131.797 186.872,131.797 227.469,222.805 
	284.529,222.805 325.126,131.797 296.915,131.797 "/>
<path style="fill:#CCC3A8;" d="M369.846,38.62h38.339c7.499,0,13.579-6.079,13.579-13.579v-3.337
	c0-7.499-6.079-13.579-13.579-13.579h-81.617H148.593h-44.78c-7.499,0-13.579,6.079-13.579,13.579v3.337
	c0,7.499,6.079,13.579,13.579,13.579h44.78h193.805"/>
<path style="fill:#2B80AF;" d="M255.397,219.485l-36.048-85.873c-0.701-1.673-0.52-3.586,0.483-5.095
	c1.004-1.511,2.698-2.418,4.511-2.418h-23.346c-1.815,0-3.507,0.908-4.511,2.418s-1.186,3.423-0.483,5.095l36.049,85.873
	c0.844,2.012,2.813,3.32,4.994,3.32h23.347C258.211,222.805,256.242,221.496,255.397,219.485z"/>
<path style="fill:#C9B585;" d="M120.047,25.041v-3.337c0-7.499,6.079-13.579,13.579-13.579h-21.669
	c-7.499,0-13.579,6.079-13.579,13.579v3.337c0,7.499,6.079,13.579,13.579,13.579h21.669
	C126.126,38.62,120.047,32.541,120.047,25.041z"/>
<path style="fill:#57BEDD;" d="M205.123,117.532v-3.914c0-7.878,6.387-14.264,14.264-14.264h-6.501h-15.168
	c-7.878,0-14.264,6.387-14.264,14.264v3.914c0,7.878,6.387,14.264,14.264,14.264h21.669
	C211.51,131.797,205.123,125.411,205.123,117.532z"/>
<path style="fill:#7C7A75;" d="M255.999,286.727c-5.054,0-9.722-1.623-13.543-4.354V490.33c0,7.479,6.064,13.543,13.543,13.543
	s13.543-6.064,13.543-13.543V282.375C265.721,285.104,261.053,286.727,255.999,286.727z"/>
<path style="fill:#231F20;" d="M408.185,0H103.813C91.845,0,82.109,9.737,82.109,21.704v3.337c0,11.968,9.737,21.704,21.704,21.704
	h78.322v45.779c-8.695,3.077-14.95,11.358-14.95,21.092v3.914c0,9.232,5.618,17.173,13.612,20.594l39.25,87.99
	c0.887,1.989,2.522,3.48,4.48,4.243v10.52c-3.033,1.18-5.184,4.119-5.184,7.569c0,3.45,2.153,6.389,5.184,7.569v7.368
	c0,8.961,3.771,17.053,9.803,22.79v32.963l-0.074,0.023c-4.287,1.328-6.686,5.88-5.358,10.166c0.832,2.684,2.93,4.614,5.432,5.367
	v17.961l-0.074,0.023c-4.287,1.328-6.686,5.88-5.358,10.166c0.831,2.684,2.93,4.614,5.432,5.367v17.964l-0.075,0.023
	c-4.286,1.328-6.685,5.88-5.356,10.167c0.832,2.684,2.93,4.614,5.432,5.366v17.962l-0.074,0.023
	c-4.287,1.328-6.686,5.88-5.358,10.166c0.831,2.684,2.93,4.614,5.432,5.367v17.962l-0.074,0.023
	c-4.287,1.328-6.686,5.88-5.358,10.166c0.832,2.684,2.93,4.614,5.432,5.367v21.563c0,11.948,9.721,21.669,21.669,21.669
	c11.948,0,21.669-9.721,21.669-21.669v-33.678c3.406-1.783,5.166-5.79,3.988-9.594c-0.665-2.147-2.142-3.82-3.988-4.789v-19.135
	c3.406-1.783,5.166-5.79,3.988-9.594c-0.665-2.148-2.142-3.822-3.988-4.791v-19.135c3.406-1.783,5.166-5.791,3.988-9.595
	c-0.666-2.148-2.141-3.822-3.988-4.791v-19.132c3.406-1.783,5.166-5.791,3.988-9.594c-0.665-2.148-2.142-3.821-3.988-4.79v-19.134
	c3.406-1.783,5.166-5.791,3.988-9.594c-0.665-2.148-2.142-3.822-3.988-4.791v-22.02c6.031-5.737,9.803-13.829,9.803-22.79v-7.368
	c3.033-1.18,5.184-4.119,5.184-7.569c0-3.45-2.153-6.389-5.184-7.569v-10.52c1.958-0.763,3.592-2.252,4.48-4.243l39.25-87.99
	c7.995-3.42,13.612-11.362,13.612-20.594v-3.914c0-9.735-6.256-18.015-14.95-21.092V46.746h12.535c4.489,0,8.126-3.637,8.126-8.126
	s-3.637-8.126-8.126-8.126h-20.661H190.261h-86.448c-3.007,0-5.453-2.446-5.453-5.453v-3.337c0-3.007,2.446-5.453,5.453-5.453
	h304.372c3.007,0,5.453,2.446,5.453,5.453v3.337c0,3.007-2.446,5.453-5.453,5.453h-38.339c-4.489,0-8.126,3.637-8.126,8.126
	s3.637,8.126,8.126,8.126h38.339c11.968,0,21.704-9.737,21.704-21.704v-3.337C429.889,9.737,420.152,0,408.185,0z M271.219,240.321
	h-30.44v-9.39h30.44V240.321L271.219,240.321z M271.219,263.384c0,5.105-2.536,9.622-6.405,12.384
	c-0.285,0.204-0.577,0.392-0.873,0.574c-0.075,0.046-0.148,0.092-0.224,0.137c-0.274,0.163-0.553,0.316-0.834,0.462
	c-0.113,0.057-0.229,0.111-0.343,0.166c-0.265,0.128-0.532,0.255-0.804,0.366c-0.325,0.133-0.655,0.254-0.991,0.363
	c-0.212,0.07-0.428,0.129-0.642,0.191c-0.271,0.076-0.543,0.15-0.82,0.211c-0.172,0.038-0.347,0.07-0.521,0.103
	c-0.301,0.055-0.607,0.102-0.913,0.14c-0.151,0.018-0.301,0.039-0.452,0.053c-0.46,0.042-0.924,0.07-1.395,0.07
	s-0.935-0.028-1.395-0.07c-0.152-0.014-0.301-0.035-0.452-0.053c-0.308-0.037-0.611-0.085-0.913-0.14
	c-0.174-0.033-0.35-0.064-0.523-0.103c-0.275-0.061-0.545-0.134-0.815-0.21c-0.26-0.074-0.518-0.151-0.772-0.237
	c-0.29-0.099-0.58-0.2-0.861-0.316c-0.281-0.115-0.555-0.246-0.828-0.378c-0.105-0.05-0.21-0.099-0.314-0.152
	c-0.291-0.15-0.579-0.309-0.862-0.477c-0.061-0.036-0.121-0.074-0.182-0.111c-0.304-0.187-0.607-0.384-0.9-0.593
	c-0.003-0.002-0.006-0.003-0.01-0.005c-3.861-2.763-6.391-7.274-6.391-12.373v-6.81h30.44L271.219,263.384L271.219,263.384z
	 M250.582,331.115l10.834-3.356v16.505l-10.834,3.355V331.115z M250.582,364.633l10.834-3.355v16.506l-10.834,3.356V364.633z
	 M250.582,398.153l10.834-3.356v16.507l-10.834,3.355V398.153z M250.582,431.672l10.834-3.355v16.505l-10.834,3.356V431.672z
	 M255.999,495.749c-2.987,0-5.417-2.43-5.417-5.417V465.19l10.834-3.356v28.497C261.416,493.318,258.986,495.749,255.999,495.749z
	 M261.416,294.387v16.36l-10.834,3.356v-19.716c0.064,0.011,0.129,0.014,0.193,0.025c0.782,0.131,1.573,0.234,2.374,0.307
	c0.106,0.01,0.212,0.016,0.319,0.024c0.836,0.067,1.678,0.111,2.531,0.111s1.696-0.044,2.531-0.111
	c0.106-0.009,0.212-0.015,0.319-0.024c0.801-0.073,1.592-0.176,2.374-0.307C261.287,294.401,261.353,294.398,261.416,294.387z
	 M279.256,214.679h-46.514l-33.348-74.757h70.435c4.489,0,8.126-3.637,8.126-8.126c0-4.489-3.637-8.126-8.126-8.126h-80.253
	c-3.385,0-6.139-2.754-6.139-6.139v-3.914c0-3.385,2.754-6.139,6.139-6.139h0.686h131.476h0.686c3.385,0,6.139,2.754,6.139,6.139
	v3.914c0,3.385-2.754,6.139-6.139,6.139h-25.508c-4.489,0-8.126,3.637-8.126,8.126c0,4.489,3.637,8.126,8.126,8.126h15.689
	L279.256,214.679z M313.611,46.746v44.482H198.387V46.746H313.611z"/>
</svg>